<svg width="29" height="29" viewBox="0 0 29 29" fill="none" xmlns="http://www.w3.org/2000/svg">
        <path fill-rule="evenodd" clip-rule="evenodd" d="M16.688 0.0895926C23.3363 1.17038 28.4658 6.89307 28.5877 13.8807C28.7072 20.7247 23.9833 26.5237 17.5815 27.992L11.0736 16.0583C15.3429 15.2151 18.4696 10.86 18.3837 5.9414C18.3455 3.75192 17.7505 1.75079 16.688 0.0895926ZM11.9876 28.1459C6.30025 27.1682 1.74719 22.7893 0.531708 17.1421L0.530749 17.0872L5.90469 16.9934L11.9876 28.1459ZM0.205671 11.9015L6.88899 11.7849C11.0661 11.712 13.4709 9.27673 13.4103 5.80757C13.3477 2.21879 10.8604 -0.0712182 6.68332 0.00169118L0 0.118346L0.205671 11.9015Z" fill="url(#paint0_linear_4211_4285)"></path>
        <defs>
          <linearGradient id="paint0_linear_4211_4285" x1="14.295" y1="0" x2="14.295" y2="28.1459" gradientUnits="userSpaceOnUse">
            <stop stop-color="#EF7160"></stop>
            <stop offset="1" stop-color="#941209"></stop>
          </linearGradient>
        </defs>
      </svg>